<?xml version="1.0" standalone="no"?>
<!DOCTYPE svg PUBLIC "-//W3C//DTD SVG 20010904//EN"
 "http://www.w3.org/TR/2001/REC-SVG-20010904/DTD/svg10.dtd">
<svg version="1.0" xmlns="http://www.w3.org/2000/svg"
 width="600.000000pt" height="546.000000pt" viewBox="0 0 600.000000 546.000000"
 preserveAspectRatio="xMidYMid meet">
<g transform="translate(0.000000,546.000000) scale(0.100000,-0.100000)"
fill="#000000" stroke="none">
<path d="M1770 4548 c0 -6 929 -928 1275 -1267 3 -2 25 13 51 34 45 37 46 39
24 47 -13 5 -95 77 -183 160 -107 102 -161 148 -166 139 -6 -9 -11 -8 -22 5
-12 16 -12 17 4 11 29 -11 20 2 -45 61 -35 31 -79 73 -98 92 -19 19 -48 45
-63 57 -16 11 -74 65 -130 119 -248 237 -304 291 -332 314 l-30 25 28 -32 c16
-17 29 -34 28 -37 -1 -3 1 -5 2 -3 8 5 36 -26 31 -34 -3 -5 -2 -8 3 -7 12 4
154 -123 148 -132 -7 -11 40 -51 50 -43 4 5 5 2 0 -6 -6 -10 -4 -12 5 -6 9 6
11 4 5 -5 -6 -9 -4 -11 5 -5 9 6 11 4 5 -5 -6 -9 -4 -11 5 -5 9 6 11 4 5 -5
-6 -9 -4 -11 5 -5 9 6 11 4 5 -5 -6 -9 -4 -11 5 -5 9 6 11 4 5 -5 -6 -9 -4
-11 5 -5 8 5 11 4 6 -3 -5 -9 9 -26 24 -27 3 0 82 -78 175 -174 94 -95 228
-228 300 -295 71 -66 129 -125 127 -129 -1 -4 6 -3 17 2 32 17 42 -9 16 -43
-12 -16 -17 -17 -30 -6 -8 7 -13 15 -10 19 2 4 -31 41 -73 82 l-77 74 75 -80
75 -80 -88 85 c-84 82 -100 99 -75 84 7 -5 8 -3 4 5 -5 7 -11 10 -14 7 -7 -7
-227 206 -224 216 1 5 -4 7 -11 5 -6 -1 -11 3 -10 9 1 6 -42 53 -95 105 -53
52 -72 67 -42 34 l55 -60 -57 54 c-31 30 -55 57 -53 61 4 7 -121 135 -133 135
-4 0 -6 3 -5 6 1 3 -12 19 -30 35 l-32 29 25 -30 25 -30 -27 24 c-15 13 -25
27 -23 31 7 11 -20 31 -30 22 -5 -4 -5 -2 -2 5 4 6 -35 49 -96 103 -135 122
-257 241 -257 250 0 4 -8 10 -17 14 -10 3 -24 9 -30 12 -7 3 -13 4 -13 2z
m555 -468 c10 -11 16 -20 13 -20 -3 0 -13 9 -23 20 -10 11 -16 20 -13 20 3 0
13 -9 23 -20z m231 -282 l29 -33 -32 29 c-31 28 -38 36 -30 36 2 0 16 -15 33
-32z m155 -85 c13 -16 12 -17 -3 -4 -10 7 -18 15 -18 17 0 8 8 3 21 -13z m274
-258 c89 -87 40 -46 -108 89 -53 49 -97 94 -97 100 0 6 28 -17 63 -51 34 -33
98 -96 142 -138z"/>
<path d="M1828 4543 c7 -3 16 -2 19 1 4 3 -2 6 -13 5 -11 0 -14 -3 -6 -6z"/>
<path d="M1980 4540 c-58 -3 48 -4 235 -2 187 3 342 6 344 8 7 6 -462 1 -579
-6z"/>
<path d="M2763 4543 c15 -2 39 -2 55 0 15 2 2 4 -28 4 -30 0 -43 -2 -27 -4z"/>
<path d="M2863 4533 c9 -2 23 -2 30 0 6 3 -1 5 -18 5 -16 0 -22 -2 -12 -5z"/>
<path d="M2375 4520 c-201 -14 -488 -18 -510 -7 -11 5 25 -36 80 -92 55 -56
101 -101 102 -101 1 0 0 9 -2 19 -2 11 -23 37 -46 58 -24 21 -58 52 -77 68
l-33 30 478 -2 c523 -2 568 -3 550 -16 -7 -5 5 -6 28 -3 31 4 35 3 20 -4 -16
-8 -13 -9 15 -5 27 4 31 2 20 -6 -12 -8 -10 -9 9 -4 18 5 22 4 16 -6 -6 -9 -3
-11 9 -6 22 9 79 -20 70 -35 -5 -8 -1 -9 10 -5 9 4 15 3 12 -2 -3 -4 17 -22
43 -40 98 -63 216 -225 268 -369 36 -98 63 -243 62 -330 l-2 -77 -7 85 c-18
196 -59 333 -140 467 -30 50 -58 89 -63 86 -4 -2 -6 -1 -5 4 4 14 -95 108
-152 144 -148 94 -185 99 -715 102 l-440 2 80 -75 c179 -168 538 -515 867
-839 103 -102 190 -183 193 -180 6 6 -281 288 -999 980 l-79 77 289 7 c396 11
516 4 635 -34 117 -38 197 -90 287 -186 109 -116 179 -265 207 -440 42 -255
-19 -526 -159 -710 -79 -104 -165 -190 -238 -238 -43 -27 -76 -52 -73 -55 17
-18 323 217 310 238 -3 5 0 12 6 16 8 4 9 3 5 -4 -4 -7 -5 -12 -2 -12 10 0 96
119 130 182 126 229 151 553 61 809 -68 193 -224 374 -391 455 -39 19 -75 34
-80 34 -5 0 26 -18 69 -39 128 -64 209 -137 297 -268 103 -154 143 -296 143
-508 1 -184 -26 -311 -96 -450 -32 -65 -101 -170 -117 -180 -6 -4 10 23 35 59
59 83 108 190 137 297 20 73 23 107 23 259 -1 151 -4 186 -23 255 -85 299
-289 507 -562 575 -100 25 -345 34 -555 20z m452 -16 c-3 -3 -12 -4 -19 -1 -8
3 -5 6 6 6 11 1 17 -2 13 -5z m60 -10 c-3 -3 -12 -4 -19 -1 -8 3 -5 6 6 6 11
1 17 -2 13 -5z m-862 -134 c10 -11 16 -20 13 -20 -3 0 -13 9 -23 20 -10 11
-16 20 -13 20 3 0 13 -9 23 -20z m1462 -842 c-3 -8 -6 -5 -6 6 -1 11 2 17 5
13 3 -3 4 -12 1 -19z m-10 -90 c-3 -7 -5 -2 -5 12 0 14 2 19 5 13 2 -7 2 -19
0 -25z"/>
<path d="M2960 4510 c34 -11 60 -11 35 0 -11 5 -29 8 -40 8 -16 0 -15 -2 5 -8z"/>
<path d="M4256 4474 c-12 -32 -35 -881 -42 -1541 l-7 -681 38 -52 c20 -28 35
-53 32 -56 -3 -3 -10 4 -17 15 -6 12 -16 18 -22 15 -6 -4 -8 -3 -5 3 4 6 0 16
-7 22 -10 9 -16 9 -21 1 -4 -6 7 -23 24 -39 17 -16 31 -33 31 -39 0 -5 7 -15
15 -22 13 -11 14 3 10 116 -14 405 -26 1328 -23 1767 1 279 2 507 2 507 -1 0
-5 -7 -8 -16z m-13 -1684 c3 -173 11 -368 18 -433 12 -118 9 -141 -14 -118 -9
9 -13 118 -15 444 -2 237 -1 430 1 427 3 -3 7 -147 10 -320z"/>
<path d="M4251 2264 c0 -11 3 -14 6 -6 3 7 2 16 -1 19 -3 4 -6 -2 -5 -13z"/>
<path d="M3060 4425 c14 -8 30 -14 35 -14 6 0 -1 6 -15 14 -14 8 -29 14 -35
14 -5 0 1 -6 15 -14z"/>
<path d="M4272 4305 c0 -16 2 -22 5 -12 2 9 2 23 0 30 -3 6 -5 -1 -5 -18z"/>
<path d="M4274 4185 c0 -49 1 -71 3 -48 2 23 2 64 0 90 -2 26 -3 8 -3 -42z"/>
<path d="M4271 4074 c0 -11 3 -14 6 -6 3 7 2 16 -1 19 -3 4 -6 -2 -5 -13z"/>
<path d="M1765 3760 c3 -129 10 -442 15 -695 25 -1136 50 -1474 47 -635 -1
412 -2 444 -7 210 -4 -218 -6 -127 -12 445 -4 486 -10 732 -18 758 -6 21 -10
50 -8 64 3 25 4 25 18 8 13 -17 13 -18 0 -11 -8 4 -7 1 4 -8 10 -8 15 -20 11
-26 -3 -5 3 -25 14 -44 21 -33 21 -44 23 -782 l3 -749 2 732 3 732 88 -92 c48
-51 124 -130 167 -177 446 -480 1056 -1088 1310 -1305 356 -305 623 -435 889
-435 66 0 220 23 276 40 65 21 183 74 172 78 -5 1 -37 -8 -70 -22 -82 -35
-213 -56 -342 -56 -300 0 -597 162 -1002 548 -51 49 -124 116 -163 150 -92 79
-458 447 -456 458 0 5 -5 9 -11 9 -7 0 -13 7 -13 15 0 8 -7 15 -15 15 -8 0
-15 6 -15 13 0 6 -3 12 -7 12 -4 0 -35 31 -68 68 -33 37 -91 99 -128 138 -37
39 -143 151 -237 250 -240 253 -446 479 -462 506 -11 19 -13 -14 -8 -212z
m212 -42 c219 -224 433 -455 426 -461 -3 -4 7 -11 22 -17 15 -6 25 -14 21 -17
-9 -9 205 -223 216 -217 5 3 8 2 7 -3 -4 -23 2 -35 17 -29 9 4 13 2 8 -5 -9
-15 587 -606 723 -717 15 -12 79 -65 141 -118 62 -52 163 -129 225 -170 61
-42 114 -78 117 -81 10 -12 -47 22 -101 58 -30 20 -73 47 -94 59 -208 117
-926 811 -1623 1569 -79 86 -149 159 -157 164 -28 15 -98 117 -81 117 2 0 62
-60 133 -132z"/>
<path d="M2290 3365 c13 -14 26 -25 28 -25 3 0 -5 11 -18 25 -13 14 -26 25
-28 25 -3 0 5 -11 18 -25z"/>
<path d="M1930 3835 c135 -139 632 -660 815 -855 390 -414 728 -737 946 -905
260 -200 436 -267 697 -263 l127 1 -155 8 c-168 8 -230 20 -353 74 -150 64
-287 162 -528 375 -200 177 -433 408 -770 765 -582 618 -786 828 -884 915 -22
19 25 -33 105 -115z"/>
<path d="M4287 3265 c3 -352 8 -759 12 -903 3 -145 3 -266 -2 -269 -4 -2 -4
-9 -1 -15 4 -6 -7 0 -24 12 -17 13 -29 26 -27 30 2 4 -24 33 -58 66 -34 32
-53 49 -43 37 11 -13 14 -23 8 -23 -6 0 -16 9 -22 20 -6 11 -7 20 -3 20 4 0
-13 20 -37 45 -41 42 -70 60 -54 33 4 -7 3 -8 -5 -4 -6 4 -9 11 -6 16 3 5 0
12 -6 16 -8 5 -9 3 -4 -6 5 -9 4 -11 -4 -6 -6 4 -9 11 -6 16 3 4 -29 40 -71
78 -41 39 -71 73 -65 76 9 6 161 -132 269 -246 30 -32 59 -55 64 -52 5 3 8 10
6 15 -8 22 -623 627 -632 622 -6 -4 -2 4 9 16 l19 22 172 -173 c137 -138 278
-288 416 -442 5 -6 8 -6 8 0 0 24 -572 624 -594 624 -6 0 -30 -17 -53 -38
l-42 -37 400 -403 c221 -222 403 -401 406 -399 2 3 -1 231 -7 508 -6 277 -15
702 -20 944 -7 388 -8 364 -3 -200z m-713 -431 c9 -3 13 -11 9 -17 -3 -6 0 -9
8 -6 8 2 102 -84 229 -211 118 -118 170 -173 115 -122 -54 50 -101 89 -104 87
-2 -3 6 -16 18 -29 12 -13 18 -26 13 -29 -5 -4 -33 18 -62 48 -30 30 -50 55
-45 55 5 0 -6 16 -25 35 -18 18 -38 33 -44 32 -6 -1 -10 3 -9 9 2 13 -51 66
-64 65 -4 -1 -8 5 -8 12 -1 6 -7 11 -14 9 -7 -1 -10 2 -7 6 3 5 -3 17 -14 27
-30 27 -27 41 4 29z m631 -676 l40 -41 -42 33 c-24 18 -43 37 -43 42 0 13 4
10 45 -34z"/>
<path d="M3632 2766 c7 -8 15 -12 17 -11 5 6 -10 25 -20 25 -5 0 -4 -6 3 -14z"/>
<path d="M3690 2705 c13 -14 26 -25 28 -25 3 0 -5 11 -18 25 -13 14 -26 25
-28 25 -3 0 5 -11 18 -25z"/>
<path d="M3758 2637 c34 -35 43 -58 15 -36 -17 12 -17 12 -1 -6 10 -10 27 -19
38 -20 17 -1 12 8 -27 47 -26 26 -49 48 -52 48 -3 0 9 -15 27 -33z"/>
<path d="M3825 2540 c10 -11 20 -20 23 -20 3 0 -3 9 -13 20 -10 11 -20 20 -23
20 -3 0 3 -9 13 -20z"/>
<path d="M1820 3801 c0 -5 5 -13 10 -16 6 -3 10 -2 10 4 0 5 -4 13 -10 16 -5
3 -10 2 -10 -4z"/>
<path d="M1821 3368 c1 -222 3 -396 5 -388 7 36 10 781 2 786 -4 3 -7 -176 -7
-398z"/>
<path d="M1821 2934 c0 -11 3 -14 6 -6 3 7 2 16 -1 19 -3 4 -6 -2 -5 -13z"/>
<path d="M1840 2223 c0 -36 2 -64 4 -62 8 10 13 129 5 129 -5 0 -9 -30 -9 -67z"/>
<path d="M1843 2080 c0 -25 2 -35 4 -22 2 12 2 32 0 45 -2 12 -4 2 -4 -23z"/>
<path d="M500 1185 l0 -175 90 0 c87 0 90 1 90 23 0 21 -3 22 -65 19 l-65 -4
0 156 0 156 -25 0 -25 0 0 -175z"/>
<path d="M4158 1349 c-16 -9 -18 -28 -18 -174 l0 -165 25 0 c25 0 25 0 25 98
0 96 1 99 25 110 36 17 52 15 75 -8 17 -17 20 -33 20 -110 0 -89 0 -90 25 -90
25 0 25 1 25 85 0 101 -17 150 -56 165 -32 13 -78 5 -99 -17 -13 -13 -15 -7
-15 51 0 68 -3 73 -32 55z"/>
<path d="M3063 1323 c-7 -2 -13 -18 -13 -34 0 -22 -5 -29 -20 -29 -13 0 -20
-7 -20 -20 0 -13 7 -20 20 -20 19 0 20 -7 20 -93 0 -59 4 -97 12 -105 14 -14
77 -16 97 -3 22 14 3 32 -26 25 -35 -9 -43 8 -43 99 l0 77 40 0 c33 0 40 3 40
20 0 17 -7 20 -41 20 -41 0 -41 0 -37 35 4 34 -2 40 -29 28z m17 -78 c0 -8 -4
-15 -10 -15 -5 0 -10 7 -10 15 0 8 5 15 10 15 6 0 10 -7 10 -15z"/>
<path d="M1637 1250 c-22 -18 -27 -19 -27 -6 0 9 -8 16 -20 16 -19 0 -20 -7
-20 -125 l0 -125 25 0 25 0 0 100 c0 97 1 101 25 112 18 8 28 8 39 -1 11 -10
20 -10 37 -1 18 10 19 14 8 25 -26 26 -63 28 -92 5z"/>
<path d="M2245 1256 c-55 -25 -70 -51 -70 -123 0 -60 2 -67 33 -94 27 -24 41
-29 85 -29 55 1 99 22 81 40 -6 6 -20 6 -41 -2 -70 -26 -137 44 -113 118 6 19
21 41 33 49 24 17 83 20 92 5 9 -14 22 -12 29 5 11 31 -81 53 -129 31z"/>
<path d="M2505 1256 c-45 -20 -67 -50 -72 -100 -10 -89 36 -146 117 -146 39 0
54 5 78 28 100 93 -2 273 -123 218z m94 -52 c30 -38 28 -103 -4 -138 -30 -33
-59 -33 -90 -1 -19 18 -25 35 -25 68 0 86 73 130 119 71z"/>
<path d="M3597 1250 c-22 -18 -27 -19 -27 -6 0 9 -8 16 -20 16 -19 0 -20 -7
-20 -125 l0 -125 26 0 25 0 -2 97 c-2 90 0 98 21 112 17 12 26 12 41 3 27 -17
68 3 48 23 -26 26 -63 28 -92 5z"/>
<path d="M3793 1256 c-85 -38 -97 -179 -19 -227 35 -21 102 -25 141 -7 29 13
28 35 -1 30 -75 -13 -80 -13 -105 7 -15 11 -29 30 -32 41 -5 19 -1 20 84 20
99 0 104 5 75 73 -26 62 -85 88 -143 63z m87 -46 c38 -38 27 -50 -45 -50 -36
0 -65 3 -65 6 0 11 23 49 34 56 20 14 56 8 76 -12z m-120 -70 c0 -5 -2 -10 -4
-10 -3 0 -8 5 -11 10 -3 6 -1 10 4 10 6 0 11 -4 11 -10z"/>
<path d="M4493 1256 c-39 -18 -63 -53 -70 -104 -15 -112 116 -187 198 -114 56
50 50 171 -10 209 -32 20 -84 24 -118 9z m97 -46 c31 -31 28 -113 -5 -145 -41
-41 -86 -28 -105 31 -31 93 48 176 110 114z"/>
<path d="M5050 1252 c-27 -13 -36 -24 -38 -48 -4 -36 21 -62 81 -84 33 -12 42
-21 42 -39 0 -36 -26 -48 -75 -35 -27 8 -43 8 -47 1 -11 -18 30 -37 79 -37 39
0 54 5 73 25 45 44 22 95 -56 124 -36 14 -44 21 -44 41 0 23 4 25 49 25 61 0
72 20 19 34 -48 14 -42 14 -83 -7z"/>
<path d="M5303 1255 c-87 -38 -96 -179 -14 -228 36 -21 119 -22 145 -2 27 20
8 42 -22 26 -46 -24 -113 2 -125 49 -5 19 -1 20 84 20 85 0 89 1 89 22 0 42
-39 106 -72 117 -39 14 -46 13 -85 -4z m91 -47 c29 -41 21 -48 -49 -48 -36 0
-65 4 -65 9 0 4 9 20 21 35 26 33 71 35 93 4z"/>
<path d="M750 1161 c0 -84 3 -102 21 -125 26 -34 84 -36 123 -5 25 20 27 20
24 3 -2 -11 4 -20 14 -22 15 -3 17 11 20 122 3 124 3 126 -19 126 -21 0 -22
-4 -25 -97 l-3 -97 -33 -13 c-30 -12 -34 -12 -58 12 -24 24 -25 31 -22 110 3
82 2 85 -19 85 -22 0 -23 -3 -23 -99z"/>
<path d="M1052 1200 l42 -60 -24 -32 c-13 -18 -35 -48 -48 -65 l-24 -33 26 0
c19 0 33 12 59 50 l34 50 32 -50 c25 -38 38 -50 57 -50 28 0 28 0 -23 71 -18
26 -33 52 -33 59 0 7 18 37 40 67 l41 53 -28 0 c-22 0 -34 -9 -53 -40 -14 -22
-28 -40 -32 -40 -4 0 -17 18 -29 40 -18 32 -28 40 -50 40 l-28 0 41 -60z m78
-59 c0 -6 -4 -13 -10 -16 -5 -3 -10 1 -10 9 0 9 5 16 10 16 6 0 10 -4 10 -9z"/>
<path d="M1282 1156 c4 -125 16 -146 83 -146 26 0 48 6 55 15 7 8 16 15 21 15
5 0 9 -7 9 -15 0 -8 9 -15 20 -15 19 0 20 7 20 125 l0 125 -25 0 c-25 0 -25 0
-25 -94 0 -97 -4 -107 -47 -120 -15 -5 -28 -1 -42 13 -18 18 -21 34 -21 111
l0 90 -26 0 -26 0 4 -104z"/>
<path d="M1770 1255 c0 -14 85 -231 93 -236 11 -8 -17 -65 -35 -72 -7 -2 -20
0 -30 4 -11 6 -18 4 -22 -6 -6 -18 22 -35 58 -35 35 0 48 23 116 200 l58 150
-29 0 c-16 0 -29 -5 -29 -12 0 -7 -15 -52 -33 -100 l-33 -86 -34 99 c-30 86
-38 99 -57 99 -13 0 -23 -2 -23 -5z m130 -215 c0 -5 -4 -10 -10 -10 -5 0 -10
5 -10 10 0 6 5 10 10 10 6 0 10 -4 10 -10z"/>
<path d="M2740 1161 c0 -84 3 -102 21 -125 24 -30 82 -36 115 -11 25 19 34 19
34 0 0 -8 6 -15 14 -15 12 0 15 24 18 125 3 123 3 125 -19 125 -21 0 -22 -4
-25 -97 l-3 -97 -31 -12 c-26 -11 -35 -10 -53 2 -19 14 -21 24 -21 110 0 94 0
94 -25 94 -25 0 -25 0 -25 -99z"/>
<path d="M3240 1161 c0 -84 3 -102 21 -125 16 -21 29 -26 64 -26 26 0 47 6 55
15 16 19 30 19 30 -1 0 -9 7 -14 16 -12 13 2 16 23 17 126 2 120 2 122 -20
122 -21 0 -22 -4 -25 -97 -3 -96 -3 -98 -31 -111 -24 -12 -31 -11 -53 2 -23
16 -24 22 -24 111 0 95 0 95 -25 95 -25 0 -25 0 -25 -99z"/>
<path d="M4730 1173 c0 -64 5 -98 18 -123 15 -32 22 -35 64 -38 37 -2 51 1 67
17 21 21 21 21 21 1 0 -13 7 -20 20 -20 19 0 20 7 20 125 l0 125 -25 0 c-25 0
-25 0 -25 -94 0 -102 -8 -118 -57 -118 -42 0 -53 25 -53 124 0 87 0 88 -25 88
-25 0 -25 -1 -25 -87z"/>
</g>
</svg>
